<svg xmlns="http://www.w3.org/2000/svg" viewBox="0 0 256 256" width="256" height="256" fill="none">
  <rect width="256" height="256" rx="56" fill="#faf9f5"/>
  <rect x="44" y="64" width="48" height="128" rx="10" fill="#1a1915"/>
  <rect x="104" y="64" width="48" height="128" rx="10" fill="#c96342"/>
  <rect x="164" y="64" width="48" height="128" rx="10" fill="#1a1915"/>

  <rect x="56" y="78" width="24" height="6" rx="3" fill="#faf9f5"/>
  <rect x="56" y="92" width="18" height="6" rx="3" fill="#faf9f5" opacity="0.55"/>

  <rect x="116" y="78" width="24" height="6" rx="3" fill="#faf9f5"/>
  <rect x="116" y="92" width="18" height="6" rx="3" fill="#faf9f5" opacity="0.65"/>
  <rect x="116" y="116" width="24" height="6" rx="3" fill="#faf9f5"/>
  <rect x="116" y="130" width="14" height="6" rx="3" fill="#faf9f5" opacity="0.65"/>

  <rect x="176" y="78" width="24" height="6" rx="3" fill="#faf9f5"/>
  <rect x="176" y="92" width="18" height="6" rx="3" fill="#faf9f5" opacity="0.55"/>
</svg>
